<svg width="95" height="36" viewBox="0 0 95 36" fill="none" xmlns="http://www.w3.org/2000/svg">
<g clip-path="url(#clip0_0_17)">
<path d="M47.268 36C57.208 36 65.268 27.941 65.268 18C65.268 8.059 57.208 0 47.268 0C37.327 0 29.268 8.059 29.268 18C29.268 27.941 37.327 36 47.268 36Z" fill="#FFCC00"/>
<path d="M45.984 26.351C44.967 25.777 44.766 24.646 44.234 23.954C44.016 23.68 43.656 23.376 43.559 23.127C42.642 20.781 42.331 19.463 42.009 17.173C41.843 16 41.065 15.011 39.93 13.623C39.435 13.018 38.73 12.018 38.12 11.427C36.073 9.701 34.966 8.742 33.6 7.822C33.3331 7.64095 33.0503 7.48463 32.755 7.355H32.748C32.7428 7.35395 32.738 7.35153 32.734 7.348C32.278 7.148 31.866 7.092 31.305 7.061C31.2304 7.05657 31.1557 7.05424 31.081 7.054C30.063 7.054 29.095 7.424 28.119 8.178C27.41 8.642 26.597 8.901 25.809 9.15C24.815 9.465 23.784 9.794 22.944 10.527C22.794 10.635 22.657 10.787 22.522 10.929C22.338 11.126 22.207 11.351 21.927 11.441C21.684 11.496 21.511 11.496 21.314 11.513C21.0034 11.5364 20.6947 11.5805 20.39 11.645C19.356 11.89 18.564 12.527 17.73 13.202L17.446 13.43C16.906 13.859 15.976 14.25 15.45 14.267C13.98 14.312 12.939 14.658 11.856 15.464C10.738 16.319 9.541 17.201 8.216 17.744C7.91168 17.8622 7.58845 17.9242 7.262 17.927C6.916 17.927 6.421 17.851 6.027 17.485C5.525 17.021 5.359 16.128 5.66 15.53C6.11 14.644 7.026 13.921 7.774 13.388C8.739 12.658 9.673 11.7 9.258 10.112C8.811 8.659 7.037 8.192 5.864 7.881C5.532 7.794 5.244 7.718 5.075 7.639C4.705 7.466 4.445 7.289 4.193 7.119C3.94826 6.94152 3.68506 6.79098 3.408 6.67C3.361 6.65344 3.31179 6.64401 3.262 6.642C3.09667 6.642 2.96433 6.72167 2.865 6.881C2.442 7.618 2.318 8.369 2.495 9.102C2.768 10.306 3.955 11.402 5.193 11.596C5.317 11.627 5.459 11.638 5.598 11.652C5.726 11.662 5.857 11.676 5.978 11.7C5.15647 12.3345 4.407 13.0571 3.743 13.855C2.837 14.921 2.588 16.682 3.165 17.948C3.664 19.214 4.93 20.245 6.245 20.453C6.504 20.501 6.785 20.525 7.102 20.525C7.559 20.525 8.019 20.477 8.459 20.429C8.566 20.419 8.677 20.404 8.78 20.394C8.825 21.397 8.86 22.02 9.417 23.442C9.451 23.532 9.427 23.684 9.31 23.788C9.213 23.874 8.403 24.21 8.171 24.258C8.07287 24.2742 7.97344 24.2812 7.874 24.279H7.542C7.432 24.279 7.289 24.279 7.151 24.299C6.642 24.372 6.39 24.801 6.21 25.217C6.1 25.469 6.02 25.691 5.95 25.881C5.777 26.355 5.67 26.649 5.338 26.829C5.338 26.829 4.646 26.213 4.528 26.129C4.36793 26.0346 4.18584 25.9839 4 25.982C3.564 25.982 3.177 26.259 2.803 26.525C2.68976 26.6096 2.57299 26.6893 2.453 26.764C2.139 26.961 1.903 27.297 1.835 27.646C1.326 27.902 0.828 28.21 0.596 28.719C0.486 28.937 0.465 29.203 0.444 29.459C0.435537 29.5806 0.421523 29.7017 0.402 29.822C0.362365 29.9033 0.317262 29.9818 0.267 30.057C0.126 30.251 0.001 30.538 0.001 30.715C0.001 31.088 0.139 31.23 0.347 31.407C0.6 31.587 1.288 31.797 1.779 31.919C1.81484 31.9288 1.85186 31.9335 1.889 31.933C2.039 31.933 2.159 31.856 2.274 31.783C2.329 31.749 2.384 31.711 2.447 31.683C2.852 31.78 3.45 31.905 4.031 31.905C4.33233 31.9043 4.60567 31.871 4.851 31.805C5.443 31.645 5.948 30.843 6.221 30.41C6.287 30.306 6.353 30.203 6.37 30.189C6.38701 30.1805 6.40609 30.177 6.425 30.179C6.515 30.179 6.661 30.22 6.816 30.265C6.996 30.317 7.204 30.375 7.391 30.393C8.058 30.452 8.695 30.037 9.107 29.729C9.276 29.604 9.459 29.428 9.639 29.259C9.839 29.068 10.044 28.871 10.221 28.753C10.4547 28.6586 10.7049 28.6117 10.957 28.615C11.047 28.6143 11.1463 28.619 11.255 28.629C11.735 28.729 12.365 28.847 12.978 28.847C13.59 28.847 14.054 28.743 14.458 28.532L14.832 28.338C15.237 28.131 15.652 27.92 16.046 27.705C16.807 27.293 17.112 26.615 17.361 26.072L17.423 25.934C17.569 25.619 17.79 25.048 17.849 24.906C17.9657 24.9227 18.088 24.9307 18.216 24.93C18.627 24.93 19.032 24.844 19.423 24.76C19.807 24.678 20.208 24.595 20.609 24.595C20.821 24.595 21.014 24.615 21.208 24.664C21.928 24.806 22.876 24.969 23.841 24.969C24.341 24.9735 24.8398 24.9212 25.328 24.813C25.439 24.92 25.564 25.013 25.685 25.103C25.805 25.193 25.916 25.276 26.02 25.377C25.909 25.3967 25.7973 25.4117 25.685 25.422C25.349 25.46 25 25.498 24.744 25.772C24.4672 25.66 24.1705 25.6056 23.872 25.612C23.5334 25.6199 23.1959 25.6523 22.862 25.709C22.7267 25.729 22.595 25.7473 22.467 25.764C21.952 25.826 21.599 26.024 21.416 26.359C21.305 26.577 21.222 26.806 21.402 27.179L22.415 28.86C22.54 29.078 22.747 29.255 22.889 29.265C22.965 29.272 23.066 29.265 23.176 29.255C23.264 29.247 23.3517 29.2423 23.439 29.241C23.6017 29.241 23.7 29.2687 23.734 29.324C23.7847 29.4027 23.834 29.481 23.882 29.559C24.09 29.885 24.304 30.224 24.629 30.511C25.121 30.94 25.913 31.119 26.657 30.947C26.937 30.8437 27.217 30.742 27.497 30.642C28.373 30.327 29.279 30.002 30.157 29.629L31.614 29.421C32.095 29.327 32.462 28.677 32.583 28.407L32.614 28.345C32.614 28.345 33.054 27.473 33.188 26.944C33.195 27.034 33.195 27.154 33.195 27.321C33.195 28.144 33.341 29.186 34.745 29.131C35.527 29.099 36.565 28.636 37.305 28.501C38.08 28.369 39.09 28.698 39.841 28.331C40.571 28.034 40.99 27.466 41.107 27.584C41.5916 28.0563 42.1669 28.4253 42.7983 28.6687C43.4296 28.9121 44.1038 29.0248 44.78 29C45.829 28.966 45.943 28.125 45.21 27.744C46.641 27.91 47.064 27.136 46.797 26.886C46.627 26.727 46.527 26.648 45.984 26.343V26.351ZM33.125 25.569C32.585 24.839 32.233 24.321 32.181 23.653C32.869 23.573 33.499 23.345 34.523 23.29C34.256 24.082 33.34 24.459 33.122 25.566L33.125 25.569ZM93.976 30.216C93.927 30.119 93.879 30.026 93.851 29.956C93.806 29.801 93.799 29.638 93.789 29.465C93.779 29.275 93.769 29.077 93.709 28.891C93.547 28.351 92.969 28.015 92.502 27.825C92.485 27.621 92.447 27.4 92.257 27.265C91.45 26.69 91.028 26.365 90.8 26.192C90.665 26.088 90.617 26.05 90.589 26.04C90.4934 25.9955 90.3895 25.9716 90.284 25.97C89.928 25.97 89.644 26.254 89.368 26.524L89.178 26.711C89.171 26.718 89.168 26.718 89.157 26.718C89.07 26.718 88.89 26.452 88.845 26.331C88.765 26.116 88.704 25.912 88.641 25.715C88.5377 25.3481 88.4046 24.9902 88.243 24.645C87.939 24.04 87.289 24.03 86.714 24.02H86.552C86.289 24.02 85.942 23.982 85.88 23.808C85.818 23.636 85.946 23.31 86.026 23.072C86.081 22.906 86.133 22.75 86.15 22.598C86.296 21.948 86.306 21.082 86.178 20.38C86.323 20.384 86.468 20.4 86.621 20.418C86.7517 20.436 86.8877 20.4487 87.029 20.456H87.154C88.019 20.456 88.749 20.286 89.385 19.941C90.668 19.169 91.454 17.924 91.485 16.599C91.44 15.907 91.277 15.336 90.925 14.63C90.451 13.696 89.662 12.776 88.51 11.821C89.177 11.683 89.731 11.521 90.243 11.198C91.288 10.534 91.751 9.33 91.547 7.805C91.492 7.445 91.353 6.822 91.049 6.66C91.0053 6.6368 90.9565 6.62477 90.907 6.625C90.686 6.625 90.471 6.864 90.281 7.075C90.211 7.155 90.143 7.227 90.084 7.279C89.728 7.597 89.309 7.68 88.87 7.767C88.638 7.812 88.4 7.86 88.174 7.943C87.122 8.286 85.334 9.067 85.174 10.489C85.019 11.894 86.019 12.839 86.988 13.752C87.309 14.056 87.618 14.343 87.88 14.648C88.44 15.295 88.918 15.938 88.793 16.665C88.749 16.914 88.396 17.295 88.06 17.447C87.8027 17.5363 87.5387 17.581 87.268 17.581C86.372 17.581 85.51 17.091 84.753 16.654L84.645 16.592C82.888 15.374 81.072 14.112 78.82 13.872C77.962 13.707 77.218 13.188 76.495 12.682C76.329 12.565 76.1617 12.45 75.993 12.337C75.2354 11.8922 74.4009 11.594 73.533 11.458C73.083 11.399 72.727 11.105 72.35 10.798C72.1549 10.6288 71.9469 10.475 71.728 10.338C70.8448 9.76805 69.8603 9.37321 68.828 9.175C68.7261 9.14418 68.6226 9.11881 68.518 9.099C68.248 9.043 67.967 8.981 67.773 8.777C67.476 8.427 67.067 7.977 66.573 7.625C65.912 7.182 64.885 6.711 63.989 6.711C63.8078 6.70857 63.6272 6.73078 63.452 6.777C62.954 6.902 62.567 7.192 62.158 7.5L62.003 7.614C61.183 8.254 60.093 9.134 59.235 9.746C56.675 11.569 55.713 12.368 54.444 13.756C51.178 17.322 52.171 22.66 49.348 25.753C48.618 26.555 48.414 26.659 48.148 26.881C47.818 27.157 47.742 28.628 49.88 27.908C48.905 28.742 49.52 29.129 50.16 29.143C51.289 29.167 52.534 28.776 53.755 27.476C54.603 28.696 56.08 28.133 56.848 28.196C57.568 28.254 58.893 29.036 59.664 28.991C60.84 28.918 61.273 27.742 61.155 27.088C61.345 27.088 61.397 27.043 61.449 26.95C61.588 27.631 61.681 28.098 61.813 28.44C61.8243 28.4653 61.839 28.4953 61.857 28.53V28.538C61.941 28.686 62.114 29.015 62.287 29.174C62.487 29.416 62.788 29.448 63.027 29.448C63.124 29.448 63.221 29.441 63.314 29.438C63.4207 29.4307 63.5243 29.427 63.625 29.427C63.7142 29.4935 63.7997 29.565 63.881 29.641C64.071 29.807 64.265 29.981 64.504 30.046C65.618 30.333 66.542 30.589 67.438 30.904C67.621 30.963 67.901 31.039 68.181 31.039C68.2723 31.039 68.36 31.031 68.444 31.015C69.296 30.831 70.054 30.102 70.24 29.275C70.254 29.147 70.347 29.136 70.506 29.129C70.621 29.126 70.752 29.119 70.825 29.036C71.288 28.666 71.572 28.157 71.849 27.669C71.9063 27.565 71.9663 27.4603 72.029 27.355C72.1004 27.2317 72.1407 27.093 72.1467 26.9507C72.1526 26.8084 72.1239 26.6668 72.063 26.538C71.973 26.358 71.8103 26.228 71.575 26.148C71.132 26.023 70.638 26.012 70.212 26.012H69.742C69.52 26.012 69.264 26.012 69.015 25.988L68.835 25.791C68.704 25.673 68.538 25.646 68.375 25.618L68.258 25.598L68.662 25.282C68.824 25.2867 68.9843 25.289 69.143 25.289C70.084 25.289 70.949 25.206 71.721 25.044C72.4077 24.8789 73.1108 24.7917 73.817 24.784C73.911 24.7827 74.0067 24.785 74.104 24.791C74.2193 24.7977 74.3347 24.8057 74.45 24.815C74.872 24.843 75.305 24.875 75.737 24.875C76.308 24.875 76.772 24.822 77.187 24.712C77.239 24.919 77.28 25.123 77.318 25.324C77.47 26.078 77.612 26.791 78.193 27.41C78.543 27.856 78.999 28.112 79.443 28.365C79.671 28.493 79.903 28.638 80.127 28.787C80.425 28.939 80.664 28.963 81.006 28.963C81.483 28.963 82.092 28.759 82.438 28.759C83.881 28.759 84.995 29.541 86.202 30.485C86.417 30.627 86.68 30.7 86.981 30.7C87.347 30.7 87.759 30.59 88.119 30.395L88.147 30.437C88.367 30.748 88.6 31.074 88.911 31.327C89.357 31.731 89.935 31.787 90.441 31.787C90.61 31.787 90.786 31.779 90.956 31.772C91.198 31.762 91.443 31.752 91.679 31.762C91.772 31.893 91.952 31.994 92.094 31.987C92.236 31.98 93.796 31.471 93.879 31.444C93.962 31.417 94.079 31.347 94.079 31.347C94.457 31.153 94.183 30.607 93.983 30.205L93.976 30.216ZM61.67 25.62C61.293 24.87 60.998 24.195 60.531 23.49C61.601 23.742 62.821 23.62 62.821 23.62C62.476 24.112 62.081 24.814 61.67 25.62Z" fill="#FFCC00"/>
<path d="M68.323 26.362C68.267 26.292 68.157 26.282 68.094 26.282C68.0673 26.2813 68.0407 26.2827 68.014 26.286C67.821 26.31 67.644 26.32 67.461 26.32C67.3666 26.3196 67.2723 26.3172 67.178 26.313C67.101 26.313 67.032 26.306 66.963 26.306C66.849 26.306 66.756 26.313 66.663 26.331H66.641L66.631 26.351C66.617 26.379 66.261 27.001 66.309 27.396C66.361 27.822 66.793 27.908 67.122 27.974C67.24 27.998 67.375 28.022 67.513 28.022C67.7477 28.0213 67.9043 27.943 67.983 27.787C68.1545 27.3663 68.2776 26.9275 68.35 26.479C68.3556 26.4577 68.356 26.4353 68.3514 26.4138C68.3467 26.3922 68.3369 26.3721 68.323 26.355V26.362ZM91.826 27.766C91.622 27.472 91.266 27.236 90.982 27.046C90.8683 26.9763 90.7594 26.8992 90.656 26.815L90.598 26.773C90.5333 26.7178 90.4511 26.6874 90.366 26.687C90.044 26.687 89.695 27.074 89.688 27.205C89.678 27.399 89.954 27.745 90.314 28.175L90.39 28.268C90.5733 28.486 90.7693 28.6023 90.978 28.617C91.189 28.617 91.355 28.547 91.532 28.382C91.663 28.261 91.954 27.956 91.822 27.769L91.826 27.766ZM93.332 30.271C93.2824 30.1732 93.2409 30.0716 93.208 29.967C93.1781 29.8205 93.1547 29.6726 93.138 29.524C93.108 29.288 93.08 29.064 93.007 28.891C92.9548 28.7843 92.8743 28.694 92.7743 28.6298C92.6744 28.5656 92.5588 28.5301 92.44 28.527C92.3579 28.526 92.2769 28.5452 92.204 28.583C91.852 28.759 91.64 28.95 91.699 29.347C91.893 29.925 91.989 30.344 92.118 30.914C92.132 31.001 92.191 31.288 92.328 31.288C92.3393 31.288 92.35 31.287 92.36 31.285L93.374 30.953C93.3976 30.946 93.4193 30.934 93.4378 30.9177C93.4563 30.9015 93.471 30.8815 93.481 30.859C93.54 30.724 93.433 30.496 93.329 30.274L93.332 30.271Z" fill="#D2003C"/>
<path d="M91.54 31.08C91.4598 30.4571 91.2869 29.8497 91.027 29.278L91.014 29.251H90.983C90.394 29.288 90.031 28.811 89.678 28.354C89.561 28.202 89.453 28.06 89.336 27.936C89.1613 27.7405 88.9728 27.5577 88.772 27.389C88.564 27.209 88.388 27.05 88.319 26.909C88.236 26.735 88.146 26.403 88.059 26.081C87.997 25.853 87.939 25.635 87.883 25.486L87.848 25.393C87.741 25.109 87.613 24.756 87.246 24.698C87.063 24.667 86.862 24.66 86.672 24.653C86.142 24.632 85.61 24.539 85.337 24.158C85.084 23.808 85.187 23.483 85.33 23.138C85.392 22.985 85.437 22.858 85.472 22.712C85.662 22.072 85.728 21.276 85.582 20.719C85.5585 20.6291 85.5308 20.5403 85.499 20.453C85.423 20.221 85.333 19.868 85.389 19.761C85.447 19.654 85.506 19.636 85.613 19.636C85.707 19.636 85.814 19.668 85.914 19.696C85.987 19.716 86.042 19.726 86.112 19.744C86.374 19.806 86.769 19.878 87.129 19.878C87.724 19.878 88.349 19.75 88.889 19.518C89.91 19.024 90.917 17.907 90.865 16.523C90.73 15.122 89.865 13.769 88.215 12.382C88.177 12.347 88.132 12.312 88.09 12.278C87.876 12.101 87.616 11.877 87.61 11.679C87.604 11.481 88.118 11.361 88.44 11.285C88.5153 11.269 88.582 11.253 88.64 11.237L88.723 11.216C89.135 11.109 89.557 10.998 89.907 10.756C91.083 9.963 91.041 8.569 90.907 7.801C90.901 7.781 90.895 7.757 90.889 7.729C90.869 7.629 90.841 7.504 90.747 7.504C90.713 7.50626 90.681 7.52084 90.657 7.545L90.55 7.645C90.415 7.774 90.266 7.919 90.093 8.015C89.72 8.237 89.27 8.331 88.838 8.421C88.561 8.479 88.274 8.538 88.008 8.631C86.838 9.036 86.112 9.628 85.852 10.392C85.717 10.79 85.79 11.292 86.049 11.776C86.433 12.382 86.983 12.911 87.519 13.423C88.364 14.233 89.235 15.066 89.436 16.201C89.546 16.861 89.277 17.419 88.616 17.9C88.27 18.107 87.827 18.218 87.336 18.218C86.7136 18.2126 86.1016 18.0583 85.551 17.768C84.866 17.426 84.205 16.983 83.565 16.554C82.603 15.911 81.607 15.246 80.504 14.894C80.026 14.675 79.494 14.568 78.981 14.464C78.251 14.316 77.497 14.164 76.891 13.689C76.6829 13.5519 76.4788 13.4088 76.279 13.26C75.729 12.863 75.162 12.45 74.519 12.288C74.279 12.205 74.045 12.174 73.816 12.14C73.463 12.088 73.135 12.043 72.83 11.825L72.415 11.524C71.903 11.15 71.374 10.763 70.845 10.496C69.935 10.043 68.966 9.808 67.883 9.573C67.537 9.49 67.323 9.23 67.094 8.953C66.942 8.767 66.783 8.576 66.582 8.441C65.749 7.781 64.991 7.338 64.015 7.338C63.9237 7.338 63.8327 7.34133 63.742 7.348C63.23 7.383 62.732 7.77 62.4 8.061C61.428 8.911 60.38 9.669 59.37 10.403C57.86 11.493 56.304 12.62 54.972 14.077C53.661 15.43 53.187 17.117 52.723 18.754C52.654 18.996 52.589 19.235 52.516 19.477C52.391 19.924 52.277 20.384 52.166 20.827C51.565 23.237 50.946 25.646 48.537 27.209C48.378 27.313 48.434 27.514 48.582 27.569C48.645 27.593 49.655 27.932 50.662 26.922C51.27 26.168 51.609 25.472 52.336 24.694C52.36 24.67 52.443 24.604 52.512 24.611C52.561 24.635 52.575 24.66 52.561 24.746C52.467 25.058 52.277 25.331 52.091 25.597C51.901 25.87 51.706 26.151 51.609 26.472C51.378 27.164 50.734 27.725 50.163 28.216C50.163 28.216 50.073 28.275 50.022 28.341C49.97 28.406 49.97 28.434 49.97 28.434C49.952 28.586 50.073 28.68 50.319 28.69C51.669 28.69 52.63 27.732 53.557 26.801C53.5772 26.7805 53.6016 26.7646 53.6286 26.7545C53.6555 26.7443 53.6843 26.74 53.713 26.742C53.7637 26.7405 53.8143 26.7486 53.862 26.766C53.924 26.801 54.066 26.94 54.176 27.036C54.481 27.306 54.792 27.586 55.2 27.669H55.214C55.706 27.6 56.148 27.545 56.605 27.545C56.7383 27.5443 56.8607 27.549 56.972 27.559C57.463 27.707 57.958 27.894 58.432 28.071C58.767 28.199 59.113 28.327 59.462 28.444H59.477C59.927 28.427 60.247 28.009 60.483 27.638C60.593 27.375 60.542 27.119 60.49 26.87C60.459 26.715 60.428 26.57 60.438 26.427C60.521 26.386 60.635 26.393 60.757 26.41C60.864 26.427 61.019 26.41 61.071 26.403C61.189 26.386 61.313 26.251 61.279 26.075C61.189 25.625 60.964 25.348 60.739 25.002C60.542 24.708 60.355 24.432 60.262 24.12C60.113 23.708 59.798 23.366 59.494 23.034C59.141 22.65 58.809 22.286 58.708 21.826C58.708 21.826 58.678 21.729 58.712 21.691C58.746 21.653 58.84 21.698 58.84 21.698C59.002 21.816 59.165 21.948 59.32 22.075C59.833 22.491 60.362 22.923 61.006 23.02C61.604 23.079 62.261 23.155 62.901 23.1C63.071 23.072 63.157 22.923 63.116 22.781C62.86 22.241 62.597 21.661 62.438 21.027C62.303 20.55 62.002 19.294 62.31 18.346C62.341 18.253 62.403 18.221 62.459 18.221C62.4643 18.2203 62.4723 18.2217 62.483 18.225C62.587 18.249 62.656 18.374 62.67 18.47L62.68 18.595C62.77 19.885 62.856 21.103 63.645 22.141C63.856 22.477 64.157 22.653 64.448 22.826C64.648 22.944 64.88 23.051 65.026 23.238C65.192 23.448 65.219 23.808 65.106 24.026L64.136 25.456C63.908 25.781 63.686 26.13 63.607 26.486C63.535 26.846 63.566 27.196 63.597 27.535L63.604 27.617C63.5729 27.5978 63.5477 27.5705 63.531 27.538C63.141 26.832 63.061 26.234 63.261 25.774C63.389 25.476 64.178 24.359 64.406 23.992C64.479 23.874 64.538 23.757 64.476 23.677C64.399 23.577 63.808 23.324 63.652 23.324C63.642 23.3233 63.6317 23.3247 63.621 23.328C63.483 23.366 63.393 23.494 63.313 23.608L63.258 23.684L62.064 25.85L62.036 25.93C61.967 26.147 61.906 26.334 61.967 26.583C62.033 26.908 62.133 27.258 62.209 27.513L62.272 27.725C62.379 28.102 62.479 28.455 62.645 28.652C62.6949 28.7121 62.7581 28.7597 62.8296 28.7909C62.9012 28.8222 62.979 28.8362 63.057 28.832C63.147 28.832 63.24 28.818 63.33 28.804C63.48 28.78 63.642 28.763 63.763 28.794C63.943 28.839 64.067 28.974 64.199 29.112C64.33 29.254 64.465 29.399 64.666 29.458C65.036 29.583 65.423 29.683 65.797 29.78C66.295 29.911 66.811 30.046 67.302 30.236C67.579 30.326 67.876 30.409 68.163 30.409C68.482 30.409 68.679 30.319 68.956 30.095C69.343 29.78 69.471 29.468 69.568 29.019C69.644 28.607 69.782 28.579 70.08 28.562C70.225 28.555 70.246 28.562 70.388 28.514C70.537 28.465 70.969 27.936 71.194 27.504C71.2573 27.3853 71.3207 27.279 71.384 27.185C71.4438 27.1064 71.4768 27.0107 71.478 26.912C71.478 26.697 71.298 26.632 71.184 26.628H71.107C71.107 26.628 69.834 26.618 69.485 26.628C68.963 26.656 68.735 27.158 68.551 27.604C68.478 27.777 68.412 27.936 68.326 28.078C68.188 28.327 67.918 28.479 67.586 28.472C67.489 28.472 67.274 28.413 67.164 28.386C66.475 28.216 65.766 28.043 65.475 27.358C65.448 27.241 65.403 26.998 65.575 26.794C65.942 26.369 66.427 25.829 66.925 25.442C67.617 25.296 68.309 24.784 68.689 24.141C68.769 24.03 68.81 23.899 68.852 23.774C68.914 23.58 68.972 23.397 69.149 23.283C69.26 23.227 69.35 23.245 69.374 23.342C69.44 23.702 69.305 24.047 69.17 24.382C69.1398 24.4567 69.1111 24.5321 69.084 24.608L69.063 24.663L69.122 24.67C69.3133 24.688 69.508 24.6973 69.706 24.698C70.416 24.698 71.09 24.577 71.744 24.459C72.391 24.341 73.062 24.22 73.754 24.22C73.8273 24.2193 73.9023 24.2207 73.979 24.224C74.287 24.224 74.584 24.251 74.875 24.276C75.159 24.3 75.453 24.328 75.747 24.328C75.85 24.328 75.947 24.328 76.044 24.318C76.93 24.276 77.574 23.874 77.767 23.238C77.95 22.695 77.93 21.758 77.708 20.449C77.698 20.387 77.691 20.346 77.691 20.339V20.315C77.691 20.266 77.691 20.215 77.757 20.183C77.84 20.138 77.927 20.183 77.967 20.29C78.303 21.231 78.497 22.314 78.601 23.058C78.715 23.781 79.016 24.514 79.528 25.296C80.161 26.241 81.206 26.784 82.392 26.784C82.669 26.784 82.946 26.732 83.219 26.697C83.409 26.673 83.482 26.683 83.61 26.683C85.119 26.683 86.43 27.337 87.409 28.573C87.409 28.573 87.426 28.597 87.426 28.631C87.426 28.683 87.35 28.735 87.284 28.707L87.156 28.607C86.306 27.947 85.426 27.265 84.323 27.13C84.1172 27.0946 83.9088 27.0772 83.7 27.078C83.3876 27.0827 83.0757 27.1058 82.766 27.147C82.462 27.182 82.178 27.217 81.884 27.217C81.5421 27.2234 81.2023 27.1622 80.884 27.037C79.614 26.617 78.577 25.157 78.244 24.251C78.232 24.2255 78.213 24.204 78.1894 24.1888C78.1657 24.1735 78.1382 24.1653 78.11 24.165C78.0753 24.1643 78.0393 24.176 78.002 24.2C77.854 24.293 77.829 24.341 77.809 24.431C77.788 24.507 77.912 25.158 77.968 25.438C78.134 26.13 78.383 27.175 79.289 27.562C79.401 27.6293 79.513 27.6997 79.625 27.773C80.078 28.063 80.545 28.365 81.081 28.365C81.2097 28.365 81.3363 28.3477 81.461 28.313C81.7843 28.2423 82.112 28.2067 82.444 28.206C83.489 28.206 84.551 28.562 85.444 29.212C85.592 29.299 85.734 29.416 85.869 29.531C86.063 29.693 86.26 29.859 86.496 29.946C86.644 30.006 86.803 30.036 86.973 30.036C87.378 30.036 87.481 29.915 87.769 29.773C87.8745 29.7207 87.9903 29.6924 88.108 29.69C88.433 29.69 88.613 29.942 88.841 30.264C88.979 30.458 89.135 30.676 89.346 30.866C89.64 31.153 90.048 31.188 90.37 31.188C90.547 31.188 90.723 31.174 90.896 31.164C91.062 31.154 91.263 31.146 91.37 31.136C91.474 31.122 91.533 31.108 91.533 31.108V31.067L91.54 31.08ZM57.165 26.255C57.107 26.362 56.965 26.424 56.778 26.424C56.6227 26.4272 56.4698 26.3852 56.338 26.303C56.096 26.13 55.955 25.843 55.934 25.466C55.93 25.379 55.924 25.289 56.041 25.203C56.1 25.168 56.135 25.168 56.204 25.168C56.435 25.168 56.806 25.317 57.003 25.556C57.017 25.573 57.325 25.981 57.166 26.258L57.165 26.255ZM57.498 20.93C57.411 21.041 57.28 21.124 57.152 21.062C57.031 21.02 56.923 20.864 56.858 20.747C56.775 20.598 56.705 20.47 56.508 20.484H56.477C56.304 20.498 56.173 20.584 56.034 20.691C55.965 20.747 55.684 20.955 55.616 21.013C55.239 21.332 54.858 21.66 54.768 22.106C54.749 22.1856 54.7317 22.2657 54.716 22.346C54.688 22.501 54.661 22.663 54.529 22.746H54.519C54.5013 22.7567 54.4806 22.7616 54.46 22.76C54.4003 22.7579 54.343 22.7361 54.297 22.698C54.2734 22.6801 54.2541 22.6572 54.2404 22.6309C54.2267 22.6046 54.2191 22.5756 54.218 22.546C54.152 21.778 54.412 21.086 54.951 20.595C55.301 20.308 55.581 19.948 55.854 19.598C55.986 19.428 56.124 19.252 56.266 19.09C56.373 18.983 56.55 19.073 56.84 19.39C56.961 19.522 57.342 20.17 57.515 20.595C57.5351 20.648 57.5437 20.7046 57.5402 20.7611C57.5368 20.8177 57.5214 20.8729 57.495 20.923L57.498 20.93ZM63.853 12.001C63.708 12.14 63.555 12.278 63.403 12.42C62.863 12.911 62.306 13.42 61.94 13.994C61.767 14.229 61.639 14.499 61.514 14.762C61.5 14.79 61.469 14.848 61.41 14.848C61.3795 14.846 61.3508 14.8324 61.33 14.81C61.227 14.706 61.313 13.983 61.448 13.62C61.746 12.818 62.42 11.977 63.303 11.316C63.4008 11.256 63.5132 11.2238 63.628 11.223C63.794 11.223 63.922 11.299 63.974 11.43C64.084 11.607 64.044 11.814 63.853 12.001ZM27.803 27.206C27.7719 27.154 27.7432 27.1006 27.717 27.046C27.627 26.877 27.579 26.697 27.534 26.541C27.444 26.227 27.368 25.953 27.025 26.001C26.541 26.071 26.07 26.102 25.545 26.102C25.537 26.102 25.375 26.102 25.323 26.216C25.264 26.348 25.396 26.472 25.538 26.6C25.617 26.673 25.7 26.749 25.755 26.832C25.852 26.974 25.945 27.178 26.035 27.375C26.177 27.69 26.302 27.96 26.444 28.005C26.509 28.0236 26.5764 28.0327 26.644 28.032C26.974 28.032 27.426 27.856 27.755 27.6C27.938 27.444 27.88 27.34 27.797 27.202L27.803 27.206ZM4.144 26.715L4.117 26.694C4.017 26.614 3.837 26.624 3.715 26.708C3.632 26.766 3.545 26.822 3.463 26.878C3.193 27.057 2.913 27.24 2.619 27.489C2.511 27.579 2.452 27.749 2.442 27.88C2.432 27.984 2.452 28.067 2.494 28.12C2.518 28.147 2.733 28.385 2.778 28.424C2.87238 28.508 2.99367 28.5555 3.12 28.558C3.22127 28.5556 3.32058 28.5296 3.41 28.482C3.933 28.22 4.473 27.251 4.494 27.195C4.549 27.04 4.373 26.898 4.144 26.715ZM2.421 29.012C2.314 28.86 1.958 28.441 1.757 28.441C1.74 28.441 1.722 28.441 1.709 28.451C1.432 28.565 1.11 28.925 1.093 29.14C1.023 30.077 0.996 30.177 0.74 30.465C0.667 30.545 0.619 30.731 0.702 30.811C0.774 30.883 1.695 31.174 1.798 31.174H1.819C1.902 31.146 1.971 30.935 2.159 30.288C2.259 29.938 2.373 29.544 2.501 29.188C2.508 29.164 2.511 29.129 2.428 29.012H2.421Z" fill="#D2003C"/>
<path d="M30.643 28.95C31.02 28.922 31.411 28.894 31.688 28.6C32.038 28.091 32.338 27.58 32.602 27.04C32.837 26.555 32.84 26.081 32.609 25.711C31.913 24.597 31.789 24.303 31.505 23.546L31.498 23.525L31.478 23.518C31.3958 23.4925 31.3147 23.4635 31.235 23.431C31.065 23.366 30.885 23.293 30.682 23.293H30.654C30.415 23.3 30.253 23.376 30.187 23.508L30.177 23.528L31.439 26.019C31.519 26.213 31.612 26.41 31.564 26.701C31.515 26.991 30.896 27.967 30.709 28.091C30.6777 28.1168 30.6394 28.1325 30.599 28.136C30.585 28.136 30.519 28.123 30.56 27.977C30.678 27.573 30.827 26.621 30.785 26.317C30.74 25.964 29.682 24.213 29.637 24.137L29.616 24.107C29.453 23.84 29.284 23.563 29.298 23.241C29.298 23.092 29.436 22.989 29.536 22.951C29.72 22.881 29.896 22.854 30.083 22.812C30.533 22.712 30.996 22.612 31.163 22.359C31.668 21.591 31.968 20.789 32.169 19.678C32.179 19.629 32.214 19.536 32.283 19.536C32.325 19.536 32.366 19.55 32.383 19.646C32.4744 20.1713 32.4604 20.7096 32.3417 21.2294C32.2231 21.7493 32.0022 22.2403 31.692 22.674C31.6482 22.7466 31.6322 22.8325 31.647 22.916C31.661 23.006 31.761 23.079 31.761 23.079C32.003 23.245 32.889 23.148 33.532 22.812C34.023 22.822 34.484 22.736 34.933 22.653C35.0757 22.6257 35.2163 22.6003 35.355 22.577C35.4 22.601 35.435 22.643 35.442 22.674C35.065 23.099 34.836 23.577 34.719 24.175C34.6118 24.2836 34.5011 24.3886 34.387 24.49C33.975 24.867 33.532 25.29 33.511 25.829C33.511 25.829 33.498 26.023 33.709 26.036C33.774 26.04 33.85 26.006 33.919 25.978C33.9868 25.9429 34.0617 25.9237 34.138 25.922C34.1702 25.9266 34.1998 25.9423 34.2217 25.9664C34.2436 25.9905 34.2565 26.0215 34.258 26.054L33.788 26.742C33.612 27.029 33.688 27.334 33.757 27.632C33.809 27.794 33.785 27.922 33.83 28.067C33.947 28.41 34.366 28.572 34.698 28.572C35.31 28.545 35.868 28.344 36.407 28.15C36.504 28.116 36.597 28.081 36.697 28.047C37.289 27.791 38.078 27.739 39.016 27.891C39.77 27.842 40.337 27.344 40.887 26.86C41.1223 26.8667 41.3647 27.005 41.614 27.275C42.43 28.15 43.43 28.575 44.672 28.575H44.814L44.938 28.565C45.066 28.535 45.101 28.472 45.108 28.392C45.118 28.296 45.042 28.199 44.904 28.133L44.208 27.763C43.651 27.41 43.046 26.984 42.88 26.423C42.7 25.825 42.364 25.217 42.112 24.812C42.0606 24.7294 42.0063 24.6487 41.949 24.57C41.852 24.428 41.749 24.282 41.679 24.13C42.437 24.4 42.862 24.96 43.375 25.895C43.755 26.59 44.745 27.337 45.682 27.337C45.807 27.337 45.924 27.323 46.042 27.299C46.142 27.279 46.208 27.213 46.222 27.126C46.232 27.05 46.222 26.977 46.139 26.932L45.571 26.649C44.897 26.254 44.509 25.604 44.132 24.971C43.983 24.721 43.832 24.466 43.665 24.234C43.558 24.074 43.371 23.909 43.209 23.764C43.067 23.636 42.932 23.514 42.907 23.449C42.292 21.767 41.621 19.792 41.458 17.595C41.434 17.26 41.198 16.523 40.918 16.045C40.043 14.62 37.953 12.181 37.839 12.06C37.767 11.9844 37.6933 11.9103 37.618 11.838L37.562 11.783L33.798 8.656C33.051 8.13 32.823 8.036 32.28 7.843C31.8995 7.71214 31.4993 7.64786 31.097 7.653C30.564 7.653 30.031 7.756 29.595 7.943C29.295 8.103 29.004 8.289 28.72 8.469C28.24 8.777 27.74 9.095 27.201 9.275C26.779 9.465 26.326 9.604 25.887 9.739C25.032 10.001 24.15 10.275 23.451 10.919C23.247 11.105 23.081 11.261 22.942 11.396C22.296 12.005 22.23 12.07 21.701 12.07C20.476 12.07 19.608 12.371 18.701 13.108C17.985 13.758 17.276 14.368 16.449 14.655C16.079 14.783 15.667 14.831 15.231 14.873C14.605 14.928 14.508 14.935 13.917 15.077C13.024 15.281 12.077 16.017 11.277 16.64C11.014 16.844 10.665 17.114 10.499 17.222C10.412 17.277 10.309 17.342 10.225 17.392C9.229 17.972 8.291 18.522 7.087 18.522H6.997C6.098 18.457 5.282 17.837 5.008 17.017C4.756 16.094 5.026 15.146 5.755 14.419C6.101 14.073 6.495 13.738 6.88 13.413C7.496 12.89 8.077 12.395 8.482 11.853C8.952 11.223 8.9 10.161 8.371 9.583C7.845 9.005 6.669 8.718 6.226 8.611L6.15 8.593C6.105 8.583 6.029 8.573 5.987 8.563C5.707 8.507 5.437 8.469 5.164 8.403C4.465 8.213 3.922 7.67 3.303 7.338C3.064 7.704 2.984 8.102 3.016 8.545C3.133 9.479 3.912 10.448 4.776 10.842C4.814 10.856 4.849 10.873 4.887 10.884C5.16 11.001 5.447 11.019 5.717 11.019H6.067C6.233 11.019 6.434 11.019 6.613 11.064C6.70807 11.0914 6.79311 11.146 6.85774 11.2209C6.92237 11.2958 6.96381 11.3879 6.977 11.486C6.991 11.61 6.935 11.707 6.777 11.828L6.337 12.191C5.593 12.804 4.825 13.441 4.202 14.211C3.365 15.115 3.327 16.685 3.718 17.702C4.216 19.042 5.593 19.792 6.738 19.937C6.942 19.968 7.146 19.986 7.361 19.986C8.035 19.986 8.675 19.823 9.298 19.667C9.32133 19.661 9.341 19.6587 9.357 19.66C9.385 19.66 9.44 19.66 9.45 19.802C9.468 20.079 9.485 20.394 9.499 20.698C9.519 21.193 9.544 21.66 9.579 21.858C9.661 22.297 9.879 22.833 10.025 23.186C10.087 23.335 10.135 23.452 10.149 23.511C10.205 23.711 10.153 23.93 10.018 24.054C9.548 24.487 8.588 24.829 8.412 24.854C8.129 24.888 7.828 24.905 7.606 24.916C7.496 24.922 7.406 24.926 7.361 24.933C7.26181 24.9433 7.16908 24.9871 7.098 25.057C6.963 25.189 6.818 25.566 6.645 26.002C6.541 26.265 6.437 26.538 6.33 26.763C6.029 27.261 5.527 27.555 5.04 27.835C4.91733 27.905 4.79733 27.9767 4.68 28.05L4.666 28.064C4.466 28.382 4.264 28.683 4.005 28.911C3.805 29.098 3.548 29.14 3.299 29.171H3.282L3.272 29.185C2.891 29.621 2.77 30.198 2.649 30.762C2.631 30.8493 2.61233 30.9347 2.593 31.018L2.576 31.098H2.625C2.825 31.122 3.025 31.164 3.237 31.212C3.517 31.274 3.804 31.337 4.088 31.337C4.358 31.337 4.586 31.281 4.794 31.167C5.157 31.001 5.351 30.665 5.541 30.344C5.666 30.133 5.794 29.911 5.967 29.742C6.01511 29.6873 6.07481 29.644 6.14176 29.6153C6.2087 29.5866 6.28121 29.5732 6.354 29.576C6.496 29.576 6.652 29.617 6.8 29.659C6.939 29.697 7.08 29.735 7.215 29.742C7.887 29.78 8.523 29.358 8.831 29.112C8.966 29.005 9.101 28.877 9.232 28.756C9.436 28.566 9.644 28.368 9.869 28.23C10.142 28.098 10.471 28.036 10.879 28.036C11.384 28.036 11.92 28.136 12.346 28.216C12.573 28.275 12.8065 28.3052 13.041 28.306C13.4239 28.313 13.8021 28.22 14.138 28.036C14.512 27.826 14.888 27.628 15.19 27.469C15.366 27.375 15.522 27.296 15.643 27.227C16.179 26.933 16.636 26.116 16.805 25.777C16.965 25.462 17.235 24.781 17.238 24.774L17.252 24.743L16.625 24.265L16.601 24.307C16.601 24.307 16.186 24.988 15.92 25.303C14.816 26.805 13.02 26.998 11.578 26.998C11.478 26.994 11.3787 26.9917 11.28 26.991C9.495 26.991 8.056 27.59 7.004 28.773C6.956 28.828 6.869 28.839 6.834 28.79C6.814 28.763 6.807 28.718 6.821 28.662C6.8423 28.5568 6.88226 28.4562 6.939 28.365C8.056 26.777 9.966 26.542 11.505 26.514C12.643 26.438 13.47 26.241 14.19 25.874C15.114 25.404 15.795 24.366 16.065 23.542C16.241 23.002 16.328 22.425 16.411 21.868C16.477 21.425 16.546 20.968 16.656 20.546C16.666 20.5198 16.6837 20.4972 16.7067 20.4812C16.7297 20.4651 16.757 20.4564 16.785 20.456C16.798 20.456 16.809 20.456 16.829 20.466C16.889 20.477 16.999 20.518 16.999 20.605C16.843 21.477 16.632 22.674 17.03 23.67C17.217 24.064 17.611 24.258 18.241 24.258C18.621 24.258 19.037 24.192 19.441 24.13C19.753 24.082 20.047 24.033 20.299 24.023C20.4057 24.013 20.5143 24.0083 20.625 24.009C21.126 24.009 21.611 24.106 22.078 24.199C22.486 24.282 22.908 24.365 23.34 24.386C23.4173 24.39 23.4993 24.396 23.586 24.404C23.735 24.417 23.89 24.428 24.05 24.428C24.416 24.428 24.676 24.355 24.863 24.203C24.994 24.096 24.949 23.933 24.89 23.729L24.88 23.691C24.8707 23.6557 24.859 23.6177 24.845 23.577C24.762 23.307 24.635 22.899 24.845 22.708C24.8793 22.6832 24.9206 22.6698 24.963 22.67C24.997 22.67 25.046 22.68 25.06 22.736L25.129 22.971C25.222 23.297 25.319 23.636 25.527 23.926C25.967 24.486 26.644 25.019 27.488 25.459C28.032 25.832 28.685 26.462 28.738 27.341C28.738 27.739 28.35 28.015 28.063 28.188C27.609 28.413 26.834 28.666 26.468 28.666C26.4194 28.6696 26.3707 28.6614 26.326 28.642C25.8 28.362 25.53 27.908 25.243 27.427C25.093 27.1632 24.9232 26.9111 24.735 26.673C24.461 26.369 24.115 26.251 23.648 26.289C23.198 26.324 22.783 26.41 22.292 26.514C22.2442 26.5223 22.199 26.5422 22.1606 26.5718C22.1221 26.6014 22.0913 26.6399 22.071 26.684C22.0496 26.7365 22.0409 26.7933 22.0456 26.8497C22.0503 26.9062 22.0682 26.9608 22.098 27.009C22.354 27.465 22.6 27.88 22.863 28.319L22.981 28.517C23.043 28.624 23.178 28.638 23.288 28.638C23.348 28.638 23.4127 28.6347 23.482 28.628C23.5553 28.6227 23.6303 28.6193 23.707 28.618C23.935 28.618 24.081 28.673 24.174 28.787C24.254 28.907 24.323 29.036 24.392 29.16C24.565 29.468 24.742 29.79 25.039 30.018C25.309 30.258 25.699 30.392 26.108 30.392C26.288 30.392 26.461 30.364 26.627 30.316C27.807 29.946 28.955 29.566 30.048 28.981C30.048 28.981 30.481 28.974 30.647 28.96L30.643 28.95ZM32.605 15.72C32.585 15.793 32.539 15.841 32.487 15.841C32.467 15.841 32.411 15.831 32.394 15.737C32.197 14.731 32.079 14.236 31.847 13.772C31.775 13.624 31.681 13.499 31.602 13.388C31.432 13.157 31.287 12.959 31.45 12.69C31.498 12.61 31.619 12.558 31.75 12.558C31.816 12.5587 31.875 12.5713 31.927 12.596C32.121 12.69 32.311 12.925 32.505 13.316C32.989 14.309 32.605 15.71 32.601 15.724L32.605 15.72ZM38.933 25.746C38.933 25.746 38.901 26.03 38.77 26.154C38.635 26.275 38.158 26.341 37.905 26.334C37.653 26.324 37.566 26.289 37.515 26.213C37.455 26.126 37.552 25.957 37.552 25.957C37.583 25.895 37.877 25.282 38.472 25.12C38.472 25.12 38.662 25.05 38.846 25.14C39.029 25.23 38.943 25.687 38.936 25.75L38.933 25.746ZM40.655 21.788C40.6375 21.9279 40.5956 22.0637 40.531 22.189C40.5 22.245 40.448 22.366 40.275 22.369C40.085 22.369 40.098 22.148 40.098 22.117C40.098 22.117 40.074 21.497 39.956 21.238C39.828 20.954 39.206 20.155 38.846 20.19C38.756 20.197 38.521 20.339 38.348 20.563C38.137 20.837 38.137 20.871 38.071 20.913C38.005 20.955 37.922 20.933 37.895 20.771C37.867 20.608 37.835 20.477 37.912 20.169C37.988 19.861 38.064 19.792 38.154 19.571C38.154 19.571 38.341 19.138 38.41 19.031C38.604 18.737 38.86 18.758 38.86 18.758C38.929 18.761 39.15 18.733 39.39 19.031C39.666 19.377 39.607 19.346 39.683 19.467C39.759 19.587 39.843 19.716 40.071 19.965C40.299 20.215 40.551 20.698 40.621 20.999C40.69 21.3 40.687 21.556 40.648 21.789L40.655 21.788Z" fill="#D2003C"/>
</g>
<defs>
<clipPath id="clip0_0_17">
<rect width="95" height="36" fill="white"/>
</clipPath>
</defs>
</svg>
